HIERARCHY
ROOT hip
{
	OFFSET 0.000000 0.000000 0.000000
	CHANNELS 6 Xposition Yposition Zposition Xrotation Zrotation Yrotation 
	JOINT abdomen
	{
		OFFSET 0.000000 3.422050 0.000000
		CHANNELS 3 Xrotation Zrotation Yrotation 
		JOINT chest
		{
			OFFSET 0.000000 8.486693 -0.684411
			CHANNELS 3 Xrotation Zrotation Yrotation 
			JOINT neck
			{
				OFFSET 0.000000 10.266162 -0.273764
				CHANNELS 3 Xrotation Zrotation Yrotation 
				JOINT head
				{
					OFFSET 0.000000 3.148285 0.000000
					CHANNELS 3 Xrotation Zrotation Yrotation 
					End Site
					{
						OFFSET 0.000000 3.148289 0.000000
					}
				}
			}
			JOINT lCollar
			{
				OFFSET 3.422053 6.707223 -0.821293
				CHANNELS 3 Yrotation Zrotation Xrotation 
				JOINT lShldr
				{
					OFFSET 3.285171 0.000000 0.000000
					CHANNELS 3 Zrotation Yrotation Xrotation 
					JOINT lForeArm
					{
						OFFSET 10.129278 0.000000 0.000000
						CHANNELS 3 Yrotation Zrotation Xrotation 
						JOINT lHand
						{
							OFFSET 8.486692 0.000000 0.000000
							CHANNELS 3 Zrotation Yrotation Xrotation 
							End Site
							{
								OFFSET 4.106464 0.000000 0.000000
							}
						}
					}
				}
			}
			JOINT rCollar
			{
				OFFSET -3.558935 6.707223 -0.821293
				CHANNELS 3 Yrotation Zrotation Xrotation 
				JOINT rShldr
				{
					OFFSET -3.148289 0.000000 0.000000
					CHANNELS 3 Zrotation Yrotation Xrotation 
					JOINT rForeArm
					{
						OFFSET -10.266159 0.000000 0.000000
						CHANNELS 3 Yrotation Zrotation Xrotation 
						JOINT rHand
						{
							OFFSET -8.349810 0.000000 0.000000
							CHANNELS 3 Zrotation Yrotation Xrotation 
							End Site
							{
								OFFSET -4.106464 0.000000 0.000000
							}
						}
					}
				}
			}
		}
	}
	JOINT lThigh
	{
		OFFSET 5.338403 -1.642589 1.368821
		CHANNELS 3 Xrotation Zrotation Yrotation 
		JOINT lShin
		{
			OFFSET -2.053232 -20.121670 0.000000
			CHANNELS 3 Xrotation Zrotation Yrotation 
			JOINT lFoot
			{
				OFFSET 0.000000 -19.300380 -1.231939
				CHANNELS 3 Xrotation Yrotation Zrotation 
				End Site
				{
					OFFSET 0.000000 -2.463878 4.653993
				}
			}
		}
	}
	JOINT rThigh
	{
		OFFSET -5.338403 -1.642589 1.368821
		CHANNELS 3 Xrotation Zrotation Yrotation 
		JOINT rShin
		{
			OFFSET 2.053232 -20.121670 0.000000
			CHANNELS 3 Xrotation Zrotation Yrotation 
			JOINT rFoot
			{
				OFFSET 0.000000 -19.300380 -1.231939
				CHANNELS 3 Xrotation Yrotation Zrotation 
				End Site
				{
					OFFSET 0.000000 -2.463878 4.653993
				}
			}
		}
	}
}
MOTION
Frames: 16
Frame Time: 0.033264
0.723890 43.147030 -10.206407 10.922581 0.000000 0.000000 3.035581 -0.489248 -0.401206 12.942973 -0.441200 -1.594028 12.090764 0.000000 0.000000 8.461020 0.000000 0.000000 -18.067507 -10.732540 1.895579 -56.074589 -12.203491 -4.777332 -43.017544 -3.023014 6.038038 12.345345 2.563321 -5.123667 17.816114 10.452115 1.957188 56.010948 12.203416 -4.778859 43.013916 3.019573 6.039407 -12.348726 -2.566953 -5.123220 -12.273067 10.034839 5.771532 29.038887 -0.279412 -0.577550 -9.893090 10.022200 -15.081878 -12.534157 -6.220779 -1.945602 29.235010 -0.090200 0.676017 -9.770400 -15.246048 12.948133 
0.723890 43.147030 -10.100975 10.345704 0.000000 0.000000 2.760362 -0.489214 -0.401228 14.291641 -0.441113 -1.593984 12.150344 0.000000 0.000000 8.502740 0.000000 0.000000 -18.292206 -10.635926 1.517291 -55.956306 -12.205200 -4.811431 -43.017544 -3.023014 6.038038 12.345345 2.563321 -5.123667 18.052963 10.370971 1.576191 55.895802 12.204937 -4.812988 43.013916 3.019573 6.039407 -12.348726 -2.566953 -5.123220 -11.319758 10.055930 5.850079 28.672581 -0.347532 -0.572063 -9.893090 10.022200 -15.081878 -11.588483 -6.251242 -1.977140 28.868856 -0.015376 0.672015 -9.770400 -15.246048 12.948133 
0.723890 43.147030 -9.995544 9.768883 0.000000 0.000000 2.485152 -0.489180 -0.401251 15.639557 -0.441027 -1.593938 12.209924 0.000000 0.000000 8.544458 0.000000 0.000000 -18.516171 -10.537867 1.139531 -55.838013 -12.206836 -4.845533 -43.017544 -3.023014 6.038038 12.345345 2.563321 -5.123667 18.289177 10.288282 1.195659 55.780647 12.206392 -4.847120 43.013916 3.019573 6.039407 -12.348726 -2.566953 -5.123220 -10.366622 10.075728 5.928957 28.306282 -0.415613 -0.566141 -9.893090 10.022200 -15.081878 -10.642997 -6.281174 -2.009172 28.502722 0.059417 0.667535 -9.770400 -15.246048 12.948133 
0.723890 43.147030 -9.890113 9.192151 0.000000 0.000000 2.209950 -0.489146 -0.401273 16.986359 -0.440942 -1.593889 12.269497 0.000000 0.000000 8.586177 0.000000 0.000000 -18.739384 -10.438363 0.762314 -55.719723 -12.208407 -4.879641 -43.017544 -3.023014 6.038038 12.345345 2.563321 -5.123667 18.524750 10.204062 0.815606 55.665478 12.207776 -4.881256 43.013916 3.019573 6.039407 -12.348726 -2.566953 -5.123220 -9.413786 10.094223 6.008130 27.939997 -0.483650 -0.559784 -9.893090 10.022200 -15.081878 -9.697819 -6.310565 -2.041685 28.136597 0.134176 0.662577 -9.770400 -15.246048 12.948133 
0.723890 43.147030 -9.784682 8.615537 0.000000 0.000000 1.934761 -0.489112 -0.401296 18.331667 -0.440859 -1.593839 12.329066 0.000000 0.000000 8.627894 0.000000 0.000000 -18.961832 -10.337429 0.385655 -55.601440 -12.209910 -4.913751 -43.017544 -3.023014 6.038038 12.345345 2.563321 -5.123667 18.759665 10.118317 0.436052 55.550320 12.209097 -4.915394 43.013916 3.019573 6.039407 -12.348726 -2.566953 -5.123220 -8.461390 10.111408 6.087564 27.573730 -0.551639 -0.552992 -9.893090 10.022200 -15.081878 -8.753085 -6.339404 -2.074666 27.770500 0.208895 0.657142 -9.770400 -15.246048 12.948133 
0.723890 43.147030 -9.679251 8.039067 0.000000 0.000000 1.659589 -0.489078 -0.401319 19.675117 -0.440777 -1.593787 12.388634 0.000000 0.000000 8.669610 0.000000 0.000000 -19.183504 -10.235075 0.009567 -55.483139 -12.211339 -4.947863 -43.017544 -3.023014 6.038038 12.345345 2.563321 -5.123667 18.993902 10.031054 0.057009 55.435154 12.210347 -4.949535 43.013916 3.019573 6.039407 -12.348726 -2.566953 -5.123220 -7.509567 10.127283 6.167229 27.207489 -0.619576 -0.545767 -9.893090 10.022200 -15.081878 -7.808924 -6.367678 -2.108099 27.404428 0.283570 0.651230 -9.770399 -15.246048 12.948133 
0.723890 43.147030 -9.573820 7.462772 0.000000 0.000000 1.384434 -0.489045 -0.401341 21.016350 -0.440696 -1.593734 12.448196 0.000000 0.000000 8.711323 0.000000 0.000000 -19.404375 -10.131307 -0.365936 -55.364861 -12.212707 -4.981978 -43.017544 -3.023014 6.038038 12.345345 2.563321 -5.123667 19.227446 9.942282 -0.321506 55.320004 12.211534 -4.983677 43.013916 3.019573 6.039407 -12.348726 -2.566953 -5.123220 -6.558446 10.141843 6.247091 26.841282 -0.687457 -0.538108 -9.893090 10.022200 -15.081878 -6.865457 -6.395380 -2.141970 27.038403 0.358196 0.644842 -9.770400 -15.246048 12.948133 
0.723890 43.147030 -9.468390 6.886683 0.000000 0.000000 1.109303 -0.489011 -0.401365 22.354998 -0.440617 -1.593678 12.507757 0.000000 0.000000 8.753036 0.000000 0.000000 -19.624449 -10.026140 -0.740840 -55.246563 -12.213998 -5.016095 -43.017544 -3.023014 6.038038 12.345345 2.563321 -5.123667 19.460283 9.852009 -0.699476 55.204842 12.212650 -5.017824 43.013916 3.019573 6.039407 -12.348726 -2.566953 -5.123220 -5.608166 10.155081 6.327114 26.475115 -0.755277 -0.530017 -9.893090 10.022200 -15.081878 -5.922819 -6.422498 -2.176266 26.672415 0.432768 0.637979 -9.770400 -15.246050 12.948134 
0.723890 43.147030 -9.362958 6.310825 0.000000 0.000000 0.834196 -0.488978 -0.401388 23.690708 -0.440539 -1.593621 11.462124 0.000000 0.000000 7.627306 0.000000 0.000000 -19.843693 -9.919578 -1.115131 -55.128277 -12.215226 -5.050216 -43.017544 -3.023014 6.038038 12.345345 2.563321 -5.123667 19.692396 9.760246 -1.076888 55.089695 12.213703 -5.051970 43.013916 3.019573 6.039407 -12.348726 -2.566953 -5.123220 -4.658853 10.167001 6.407267 26.108994 -0.823034 -0.521494 -9.893090 10.022200 -15.081878 -4.981129 -6.449024 -2.210970 26.306475 0.507283 0.630640 -9.770400 -15.246048 12.948133 
0.723890 43.147030 -9.257526 5.735231 0.000000 0.000000 0.559119 -0.488945 -0.401411 25.023127 -0.440462 -1.593562 10.413254 0.000000 0.000000 6.497510 0.000000 0.000000 -20.062107 -9.811634 -1.488796 -55.009991 -12.216381 -5.084338 -43.017544 -3.023014 6.038038 12.345345 2.563321 -5.123667 19.923771 9.667002 -1.453723 54.974525 12.214685 -5.086119 43.013916 3.019573 6.039407 -12.348726 -2.566953 -5.123220 -3.710643 10.177600 6.487514 25.742926 -0.890721 -0.512540 -9.893090 10.022200 -15.081878 -4.040517 -6.474948 -2.246067 25.940584 0.581735 0.622827 -9.770400 -15.246048 12.948133 
0.723890 43.147030 -9.152096 5.159929 0.000000 0.000000 0.284073 -0.488912 -0.401435 26.351910 -0.440388 -1.593501 9.361306 0.000000 0.000000 5.363850 0.000000 0.000000 -20.279676 -9.702321 -1.861822 -54.891701 -12.217468 -5.118462 -43.017544 -3.023014 6.038038 12.345345 2.563321 -5.123667 20.154396 9.572289 -1.829969 54.859375 12.215603 -5.120269 43.013916 3.019573 6.039407 -12.348726 -2.566953 -5.123220 -2.763664 10.186876 6.567821 25.376921 -0.958335 -0.503155 -9.893090 10.022200 -15.081878 -3.101109 -6.500262 -2.281541 25.574762 0.656119 0.614541 -9.770399 -15.246048 12.948133 
0.723890 43.147030 -9.046665 4.584945 0.000000 0.000000 0.009062 -0.488879 -0.401459 27.676712 -0.440315 -1.593440 8.306443 0.000000 0.000000 4.226528 0.000000 0.000000 -20.496382 -9.591644 -2.234196 -54.773422 -12.218490 -5.152588 -43.017544 -3.023014 6.038038 12.345345 2.563321 -5.123667 20.384253 9.476110 -2.205610 54.744225 12.216454 -5.154420 43.013916 3.019573 6.039407 -12.348726 -2.566953 -5.123220 -1.818045 10.194837 6.648159 25.010977 -1.025873 -0.493341 -9.893090 10.022200 -15.081878 -2.163024 -6.524959 -2.317377 25.209013 0.730432 0.605782 -9.770400 -15.246048 12.948133 
0.723890 43.147030 -8.941234 4.010309 0.000000 0.000000 -0.265911 -0.488846 -0.401482 28.997204 -0.440243 -1.593376 7.248836 0.000000 0.000000 3.085749 0.000000 0.000000 -20.712215 -9.479618 -2.605904 -54.655128 -12.219438 -5.186714 -43.017544 -3.023014 6.038038 12.345345 2.563321 -5.123667 20.613331 9.378484 -2.580632 54.629066 12.217235 -5.188572 43.013916 3.019573 6.039407 -12.348726 -2.566953 -5.123220 -0.873917 10.201479 6.728488 24.645111 -1.093329 -0.483098 -9.893090 10.022200 -15.081878 -1.226390 -6.549031 -2.353558 24.843342 0.804669 0.596550 -9.770400 -15.246050 12.948134 
0.723890 43.147030 -8.835802 3.436051 0.000000 0.000000 -0.540843 -0.488813 -0.401506 30.313053 -0.440174 -1.593311 6.188654 0.000000 0.000000 1.941729 0.000000 0.000000 -20.927168 -9.366254 -2.976937 -54.536850 -12.220320 -5.220842 -43.017544 -3.023014 6.038038 12.345345 2.563321 -5.123667 20.841608 9.279414 -2.955021 54.513924 12.217950 -5.222724 43.013916 3.019573 6.039407 -12.348726 -2.566953 -5.123220 0.068597 10.206815 6.808783 24.279325 -1.160700 -0.472427 -9.893090 10.022200 -15.081878 -0.291324 -6.572472 -2.390068 24.477745 0.878825 0.586848 -9.770399 -15.246048 12.948133 
0.723890 43.147030 -8.730371 2.862198 0.000000 0.000000 -0.815731 -0.488780 -0.401531 31.623940 -0.440106 -1.593245 5.126068 0.000000 0.000000 0.794679 0.000000 0.000000 -21.141222 -9.251561 -3.347278 -54.418575 -12.221134 -5.254972 -43.017544 -3.023014 6.038038 12.345345 2.563321 -5.123667 21.069078 9.178912 -3.328760 54.398777 12.218600 -5.256879 43.013916 3.019573 6.039407 -12.348726 -2.566953 -5.123220 1.009367 10.210838 6.889004 23.913620 -1.227982 -0.461329 -9.893090 10.022200 -15.081878 0.642047 -6.595275 -2.426890 24.112236 0.952895 0.576676 -9.770400 -15.246048 12.948133 
0.723890 43.147030 -8.624941 2.288779 0.000000 0.000000 -1.090570 -0.488748 -0.401555 32.929546 -0.440039 -1.593178 4.061253 0.000000 0.000000 -0.355181 0.000000 0.000000 -21.354374 -9.135555 -3.716919 -54.300304 -12.221877 -5.289101 -43.017544 -3.023014 6.038038 12.345345 2.563321 -5.123667 21.295721 9.076991 -3.701838 54.283619 12.219179 -5.291033 43.013916 3.019573 6.039407 -12.348726 -2.566953 -5.123220 1.948270 10.213561 6.969122 23.548008 -1.295170 -0.449805 -9.893090 10.022200 -15.081878 1.573609 -6.617437 -2.464008 23.746824 1.026875 0.566034 -9.770400 -15.246050 12.948134 
